<?xml version="1.0" standalone="no"?>
<!DOCTYPE svg PUBLIC "-//W3C//DTD SVG 1.1//EN"
  "http://www.w3.org/Graphics/SVG/1.1/DTD/svg11.dtd">
<svg xmlns="http://www.w3.org/2000/svg" version="1.1"
     width="783px" height="240px" viewBox="-15 -126 783 250">
  <defs>
    <style type="text/css"><![CDATA[
      .markmap-node {
        cursor: pointer;
      }

      .markmap-node-circle {
        fill: #fff;
        stroke-width: 1.5px;
      }

      .markmap-node-text {
        fill:  #000;
        font: 10px sans-serif;
      }

      .markmap-link {
        fill: none;
      }
    ]]></style>
  </defs>
  <g><path class="markmap-link" stroke="#1f77b4" stroke-width="1.5" d="M160.11328125,93.75C190.11328125,93.75 190.11328125,78.75 220.11328125,78.75"></path><path class="markmap-link" stroke="#1f77b4" stroke-width="1.5" d="M160.11328125,93.75C190.11328125,93.75 190.11328125,93.75 220.11328125,93.75"></path><path class="markmap-link" stroke="#1f77b4" stroke-width="1.5" d="M160.11328125,93.75C190.11328125,93.75 190.11328125,108.75 220.11328125,108.75"></path><path class="markmap-link" stroke="#aec7e8" stroke-width="1.5" d="M160.11328125,28.75C190.11328125,28.75 190.11328125,-1.25 220.11328125,-1.25"></path><path class="markmap-link" stroke="#aec7e8" stroke-width="1.5" d="M160.11328125,28.75C190.11328125,28.75 190.11328125,13.75 220.11328125,13.75"></path><path class="markmap-link" stroke="#aec7e8" stroke-width="1.5" d="M160.11328125,28.75C190.11328125,28.75 190.11328125,28.75 220.11328125,28.75"></path><path class="markmap-link" stroke="#aec7e8" stroke-width="1.5" d="M160.11328125,28.75C190.11328125,28.75 190.11328125,43.75 220.11328125,43.75"></path><path class="markmap-link" stroke="#aec7e8" stroke-width="1.5" d="M160.11328125,28.75C190.11328125,28.75 190.11328125,58.75 220.11328125,58.75"></path><path class="markmap-link" stroke="#ff7f0e" stroke-width="1.5" d="M200.11328125,-43.75C230.11328125,-43.75 230.11328125,-66.25 260.11328125,-66.25"></path><path class="markmap-link" stroke="#ff7f0e" stroke-width="1.5" d="M200.11328125,-43.75C230.11328125,-43.75 230.11328125,-51.25 260.11328125,-51.25"></path><path class="markmap-link" stroke="#ff7f0e" stroke-width="1.5" d="M200.11328125,-43.75C230.11328125,-43.75 230.11328125,-36.25 260.11328125,-36.25"></path><path class="markmap-link" stroke="#ff7f0e" stroke-width="1.5" d="M200.11328125,-43.75C230.11328125,-43.75 230.11328125,-21.25 260.11328125,-21.25"></path><path class="markmap-link" stroke="#ffbb78" stroke-width="1.5" d="M160.11328125,-93.75C190.11328125,-93.75 190.11328125,-101.25 220.11328125,-101.25"></path><path class="markmap-link" stroke="#ffbb78" stroke-width="1.5" d="M160.11328125,-93.75C190.11328125,-93.75 190.11328125,-86.25 220.11328125,-86.25"></path><path class="markmap-link" stroke="#ffbb78" stroke-width="2" d="M68.11328125,0C98.11328125,0 98.11328125,-93.75 128.11328125,-93.75"></path><path class="markmap-link" stroke="#ff7f0e" stroke-width="2" d="M68.11328125,0C98.11328125,0 98.11328125,-43.75 128.11328125,-43.75"></path><path class="markmap-link" stroke="#aec7e8" stroke-width="2" d="M68.11328125,0C98.11328125,0 98.11328125,28.75 128.11328125,28.75"></path><path class="markmap-link" stroke="#1f77b4" stroke-width="2" d="M68.11328125,0C98.11328125,0 98.11328125,93.75 128.11328125,93.75"></path><path class="markmap-link" stroke="#ff7f0e" stroke-width="1.5" d="M316.576171875,-66.25C346.576171875,-66.25 346.576171875,-88.75 376.576171875,-88.75"></path><path class="markmap-link" stroke="#ff7f0e" stroke-width="1.5" d="M316.576171875,-66.25C346.576171875,-66.25 346.576171875,-73.75 376.576171875,-73.75"></path><path class="markmap-link" stroke="#ff7f0e" stroke-width="1.5" d="M316.576171875,-66.25C346.576171875,-66.25 346.576171875,-58.75 376.576171875,-58.75"></path><path class="markmap-link" stroke="#ff7f0e" stroke-width="1.5" d="M316.576171875,-66.25C346.576171875,-66.25 346.576171875,-43.75 376.576171875,-43.75"></path><g class="markmap-node" transform="translate(220.11328125,108.75)"><rect class="markmap-node-rect" y="-0.75" x="-1" width="107.92578125" height="1.5" fill="#1f77b4"></rect><circle class="markmap-node-circle" cx="105.92578125" stroke="#1f77b4" r="4.5"></circle><text class="markmap-node-text" x="10" dy="-5" text-anchor="start" style="fill-opacity: 1;">puckel/docker-airflow</text></g><g class="markmap-node" transform="translate(220.11328125,93.75)"><rect class="markmap-node-rect" y="-0.75" x="-1" width="205.1962890625" height="1.5" fill="#1f77b4"></rect><circle class="markmap-node-circle" cx="203.1962890625" stroke="#1f77b4" r="4.5"></circle><text class="markmap-node-text" x="10" dy="-5" text-anchor="start" style="fill-opacity: 1;">Modern ETL-ing with Python and Airflow …</text></g><g class="markmap-node" transform="translate(220.11328125,78.75)"><rect class="markmap-node-rect" y="-0.75" x="-1" width="123.4775390625" height="1.5" fill="#1f77b4"></rect><circle class="markmap-node-circle" cx="121.4775390625" stroke="#1f77b4" r="4.5"></circle><text class="markmap-node-text" x="10" dy="-5" text-anchor="start" style="fill-opacity: 1;">Apache Airflow 知乎文章</text></g><g class="markmap-node" transform="translate(128.11328125,93.75)"><rect class="markmap-node-rect" y="-1" x="-1" width="34" height="2" fill="#1f77b4"></rect><circle class="markmap-node-circle" cx="32" stroke="#1f77b4" r="4.5"></circle><text class="markmap-node-text" x="10" dy="-5" text-anchor="start" style="fill-opacity: 1;">资料</text></g><g class="markmap-node" transform="translate(220.11328125,58.75)"><rect class="markmap-node-rect" y="-0.75" x="-1" width="187.1591796875" height="1.5" fill="#aec7e8"></rect><circle class="markmap-node-circle" cx="185.1591796875" stroke="#aec7e8" r="4.5" style="display: none;"></circle><text class="markmap-node-text" x="10" dy="-5" text-anchor="start" style="fill-opacity: 1;">使用命令行或者Web UI进行查看和管理</text></g><g class="markmap-node" transform="translate(220.11328125,43.75)"><rect class="markmap-node-rect" y="-0.75" x="-1" width="214.0341796875" height="1.5" fill="#aec7e8"></rect><circle class="markmap-node-circle" cx="212.0341796875" stroke="#aec7e8" r="4.5" style="display: none;"></circle><text class="markmap-node-text" x="10" dy="-5" text-anchor="start" style="fill-opacity: 1;">调度DAG运行，每个Task会行成一个Instance</text></g><g class="markmap-node" transform="translate(220.11328125,28.75)"><rect class="markmap-node-rect" y="-0.75" x="-1" width="171.2314453125" height="1.5" fill="#aec7e8"></rect><circle class="markmap-node-circle" cx="169.2314453125" stroke="#aec7e8" r="4.5" style="display: none;"></circle><text class="markmap-node-text" x="10" dy="-5" text-anchor="start" style="fill-opacity: 1;">定义Tasks间的关系，形成一个DAG</text></g><g class="markmap-node" transform="translate(220.11328125,13.75)"><rect class="markmap-node-rect" y="-0.75" x="-1" width="179.5615234375" height="1.5" fill="#aec7e8"></rect><circle class="markmap-node-circle" cx="177.5615234375" stroke="#aec7e8" r="4.5" style="display: none;"></circle><text class="markmap-node-text" x="10" dy="-5" text-anchor="start" style="fill-opacity: 1;">传入具体的参数，定义一系列的Tasks</text></g><g class="markmap-node" transform="translate(220.11328125,-1.25)"><rect class="markmap-node-rect" y="-0.75" x="-1" width="173.462890625" height="1.5" fill="#aec7e8"></rect><circle class="markmap-node-circle" cx="171.462890625" stroke="#aec7e8" r="4.5" style="display: none;"></circle><text class="markmap-node-text" x="10" dy="-5" text-anchor="start" style="fill-opacity: 1;">根据实际需要，使用不同的Operator</text></g><g class="markmap-node" transform="translate(128.11328125,28.75)"><rect class="markmap-node-rect" y="-1" x="-1" width="34" height="2" fill="#aec7e8"></rect><circle class="markmap-node-circle" cx="32" stroke="#aec7e8" r="4.5"></circle><text class="markmap-node-text" x="10" dy="-5" text-anchor="start" style="fill-opacity: 1;">使用</text></g><g class="markmap-node" transform="translate(260.11328125,-21.25)"><rect class="markmap-node-rect" y="-0.75" x="-1" width="42.33984375" height="1.5" fill="#ff7f0e"></rect><circle class="markmap-node-circle" cx="40.33984375" stroke="#ff7f0e" r="4.5" style="display: none;"></circle><text class="markmap-node-text" x="10" dy="-5" text-anchor="start" style="fill-opacity: 1;">DAGS</text></g><g class="markmap-node" transform="translate(260.11328125,-36.25)"><rect class="markmap-node-rect" y="-0.75" x="-1" width="80.142578125" height="1.5" fill="#ff7f0e"></rect><circle class="markmap-node-circle" cx="78.142578125" stroke="#ff7f0e" r="4.5" style="display: none;"></circle><text class="markmap-node-text" x="10" dy="-5" text-anchor="start" style="fill-opacity: 1;">Task Instances</text></g><g class="markmap-node" transform="translate(260.11328125,-51.25)"><rect class="markmap-node-rect" y="-0.75" x="-1" width="39.5615234375" height="1.5" fill="#ff7f0e"></rect><circle class="markmap-node-circle" cx="37.5615234375" stroke="#ff7f0e" r="4.5" style="display: none;"></circle><text class="markmap-node-text" x="10" dy="-5" text-anchor="start" style="fill-opacity: 1;">Tasks</text></g><g class="markmap-node" transform="translate(260.11328125,-66.25)"><rect class="markmap-node-rect" y="-0.75" x="-1" width="58.462890625" height="1.5" fill="#ff7f0e"></rect><circle class="markmap-node-circle" cx="56.462890625" stroke="#ff7f0e" r="4.5" style=""></circle><text class="markmap-node-text" x="10" dy="-5" text-anchor="start" style="fill-opacity: 1;">Operators</text></g><g class="markmap-node" transform="translate(128.11328125,-43.75)"><rect class="markmap-node-rect" y="-1" x="-1" width="74" height="2" fill="#ff7f0e"></rect><circle class="markmap-node-circle" cx="72" stroke="#ff7f0e" r="4.5"></circle><text class="markmap-node-text" x="10" dy="-5" text-anchor="start" style="fill-opacity: 1;">三个重要概念</text></g><g class="markmap-node" transform="translate(220.11328125,-86.25)"><rect class="markmap-node-rect" y="-0.75" x="-1" width="134" height="1.5" fill="#ffbb78"></rect><circle class="markmap-node-circle" cx="132" stroke="#ffbb78" r="4.5" style="display: none;"></circle><text class="markmap-node-text" x="10" dy="-5" text-anchor="start" style="fill-opacity: 1;">支持单机和分布式两种模式</text></g><g class="markmap-node" transform="translate(220.11328125,-101.25)"><rect class="markmap-node-rect" y="-0.75" x="-1" width="94" height="1.5" fill="#ffbb78"></rect><circle class="markmap-node-circle" cx="92" stroke="#ffbb78" r="4.5" style="display: none;"></circle><text class="markmap-node-text" x="10" dy="-5" text-anchor="start" style="fill-opacity: 1;">一款数据流程工具</text></g><g class="markmap-node" transform="translate(128.11328125,-93.75)"><rect class="markmap-node-rect" y="-1" x="-1" width="34" height="2" fill="#ffbb78"></rect><circle class="markmap-node-circle" cx="32" stroke="#ffbb78" r="4.5"></circle><text class="markmap-node-text" x="10" dy="-5" text-anchor="start" style="fill-opacity: 1;">简介</text></g><g class="markmap-node" transform="translate(0,0)"><rect class="markmap-node-rect" y="-3" x="-1" width="70.11328125" height="6" fill="#2ca02c"></rect><circle class="markmap-node-circle" cx="68.11328125" stroke="#2ca02c" r="4.5"></circle><text class="markmap-node-text" x="10" dy="-5" text-anchor="start" style="fill-opacity: 1;">AirFlow 框架</text></g><g class="markmap-node" transform="translate(376.576171875,-43.75)"><rect class="markmap-node-rect" y="-0.75" x="-1" width="378.462890625" height="1.5" fill="#ff7f0e"></rect><circle class="markmap-node-circle" cx="376.462890625" stroke="#ff7f0e" r="4.5" style="display: none;"></circle><text class="markmap-node-text" x="10" dy="-5" text-anchor="start" style="fill-opacity: 1;">Sensor感知器/触发器，可以定义触发条件和动作，在条件满足时执行某个动作。…</text></g><g class="markmap-node" transform="translate(376.576171875,-58.75)"><rect class="markmap-node-rect" y="-0.75" x="-1" width="158.4677734375" height="1.5" fill="#ff7f0e"></rect><circle class="markmap-node-circle" cx="156.4677734375" stroke="#ff7f0e" r="4.5" style="display: none;"></circle><text class="markmap-node-text" x="10" dy="-5" text-anchor="start" style="fill-opacity: 1;">EmailOperator可以进行邮件发送</text></g><g class="markmap-node" transform="translate(376.576171875,-73.75)"><rect class="markmap-node-rect" y="-0.75" x="-1" width="244.6201171875" height="1.5" fill="#ff7f0e"></rect><circle class="markmap-node-circle" cx="242.6201171875" stroke="#ff7f0e" r="4.5" style="display: none;"></circle><text class="markmap-node-text" x="10" dy="-5" text-anchor="start" style="fill-opacity: 1;">PythonOperator可以执行用户指定的一个python函数</text></g><g class="markmap-node" transform="translate(376.576171875,-88.75)"><rect class="markmap-node-rect" y="-0.75" x="-1" width="229.048828125" height="1.5" fill="#ff7f0e"></rect><circle class="markmap-node-circle" cx="227.048828125" stroke="#ff7f0e" r="4.5" style="display: none;"></circle><text class="markmap-node-text" x="10" dy="-5" text-anchor="start" style="fill-opacity: 1;">BashOperator可以执行用户指定的一个Bash命令</text></g></g>
</svg>